<?xml version="1.0" encoding="UTF-8"?>
<svg version="1.1" xmlns="http://www.w3.org/2000/svg" width="512" height="512">
<path d="M0 0 C14.1506699 11.03492607 21.72961883 24.4944184 24.5546875 41.9921875 C26.35466357 58.02322437 21.12174706 73.68777167 11.67578125 86.55078125 C4.46610258 95.18783065 -4.89029901 101.1811427 -15.4453125 104.9921875 C-16.4353125 104.9921875 -17.4253125 104.9921875 -18.4453125 104.9921875 C-18.4453125 144.5921875 -18.4453125 184.1921875 -18.4453125 224.9921875 C-13.4953125 223.0121875 -13.4953125 223.0121875 -8.4453125 220.9921875 C-5.62324895 220.3491719 -2.94741904 219.81151299 -0.09985352 219.40429688 C0.66481704 219.2860128 1.42948759 219.16772873 2.21732998 219.04586029 C10.55493956 217.78354732 18.92377636 216.74201807 27.29478645 215.72953796 C30.10947942 215.38848523 32.92338936 215.04151029 35.73716736 214.69299316 C43.7217781 213.70466203 51.70726601 212.7236915 59.6940918 211.75341797 C64.61767683 211.15486312 69.54007491 210.54724805 74.46185112 209.93400574 C76.32122298 209.70413894 78.18101994 209.47768202 80.04124641 209.25483704 C82.63938457 208.94337669 85.23585943 208.62038559 87.83227539 208.29492188 C88.58515335 208.20756271 89.33803131 208.12020355 90.11372375 208.03019714 C97.76643104 207.04649373 105.63073201 205.12628225 111.5546875 199.9921875 C117.12118539 192.28271859 118.61125412 185.96066209 119.1171875 176.6796875 C119.18196289 175.56883789 119.18196289 175.56883789 119.24804688 174.43554688 C119.35339182 172.62127286 119.45447066 170.806752 119.5546875 168.9921875 C118.69488281 168.89035156 117.83507812 168.78851563 116.94921875 168.68359375 C105.08929062 166.2679352 94.7867973 157.69136811 87.8046875 148.1171875 C78.62542177 134.1358059 74.09974963 118.7722412 77.24609375 102.0078125 C80.114725 88.54657728 85.84570672 78.71832196 95.5546875 68.9921875 C96.11929688 68.41597656 96.68390625 67.83976562 97.265625 67.24609375 C107.4810461 57.65356418 121.63713327 53.4034488 135.3671875 53.5546875 C136.81013184 53.56495972 136.81013184 53.56495972 138.28222656 53.57543945 C146.01436619 53.74915885 152.40495566 54.91198919 159.5546875 57.9921875 C160.40675781 58.31960937 161.25882813 58.64703125 162.13671875 58.984375 C174.27602421 64.22243751 184.70033083 75.38781426 190.05078125 87.33203125 C195.78407513 101.77083651 197.42246249 119.30312086 191.8671875 134.1171875 C184.71522065 149.78340061 174.2844532 160.94675951 158.5546875 167.9921875 C155.13671875 168.703125 155.13671875 168.703125 152.5546875 168.9921875 C152.60109375 170.178125 152.6475 171.3640625 152.6953125 172.5859375 C153.21104459 191.60479319 149.68880176 207.54864543 137.08203125 222.37890625 C133.0050069 226.59456203 128.4994658 229.86643425 123.5546875 232.9921875 C122.92304688 233.40082031 122.29140625 233.80945313 121.640625 234.23046875 C109.67672623 241.05568853 93.95100422 241.96219629 80.54448128 243.54576302 C77.4520441 243.91124305 74.36138842 244.28950536 71.27085876 244.67076111 C64.72096244 245.47651213 58.16922459 246.26656204 51.6171875 247.0546875 C43.99122558 247.97269707 36.36616596 248.89732161 28.74285698 249.83712578 C25.7121762 250.20753112 22.68030326 250.56669 19.64820862 250.92530823 C17.77981058 251.15417475 15.91147519 251.38355349 14.04321289 251.61352539 C12.79697395 251.75623367 12.79697395 251.75623367 11.52555847 251.90182495 C3.67552655 252.89043474 -4.35375343 254.7128363 -10.4453125 259.9921875 C-16.01181039 267.70165641 -17.50187912 274.02371291 -18.0078125 283.3046875 C-18.05099609 284.04525391 -18.09417969 284.78582031 -18.13867188 285.54882812 C-18.24401682 287.36310214 -18.34509566 289.177623 -18.4453125 290.9921875 C-17.56359375 291.10433594 -16.681875 291.21648437 -15.7734375 291.33203125 C-3.1885112 293.82833705 7.81044007 303.93499219 14.8046875 314.21484375 C23.61925109 328.20402838 26.8994695 343.72905537 23.42333984 360.04101562 C20.41432352 372.69614659 14.70555909 381.8251483 5.5546875 390.9921875 C4.99007812 391.56839844 4.42546875 392.14460938 3.84375 392.73828125 C-6.37102955 402.33020839 -20.52820955 406.58211767 -34.2578125 406.4296875 C-35.70184448 406.41832764 -35.70184448 406.41832764 -37.17504883 406.40673828 C-54.00358019 406.01896454 -67.8027733 398.98318298 -79.4453125 386.9921875 C-91.95457686 372.91926509 -94.54784034 356.76686146 -93.65234375 338.53710938 C-92.46167697 323.90089409 -84.00489183 310.66718676 -73.04882812 301.25292969 C-66.52403561 296.12290098 -59.66922407 292.36283943 -51.4453125 290.9921875 C-51.4453125 229.6121875 -51.4453125 168.2321875 -51.4453125 104.9921875 C-54.4153125 104.4971875 -54.4153125 104.4971875 -57.4453125 103.9921875 C-65.70945915 100.56916818 -72.16302403 95.25227707 -78.4453125 88.9921875 C-79.00992188 88.45078125 -79.57453125 87.909375 -80.15625 87.3515625 C-91.80409448 75.14905876 -94.04429086 59.49868865 -93.76171875 43.43359375 C-93.48708534 36.75161346 -92.10290376 31.16096722 -89.4453125 24.9921875 C-89.11789063 24.14011719 -88.79046875 23.28804687 -88.453125 22.41015625 C-81.83718079 7.07758481 -68.10189997 -1.98585911 -53.171875 -8.0625 C-35.69628466 -14.12137229 -14.93717972 -10.32748627 0 0 Z M-53.4453125 29.9921875 C-59.93184428 37.96096659 -61.44719563 44.77530953 -60.4453125 54.9921875 C-58.27254133 62.35321131 -53.86248368 67.84464419 -47.4453125 71.9921875 C-40.62111999 75.28095497 -34.25245987 75.96473951 -26.9453125 73.8046875 C-18.12248702 70.53919352 -13.43390695 65.55829638 -9.4453125 56.9921875 C-7.60603746 49.59076746 -8.04400582 42.8290422 -11.4453125 35.9921875 C-16.86276977 28.06947417 -22.78284817 24.40780358 -31.9453125 22.1171875 C-40.37962574 21.81596203 -47.11834547 24.36557892 -53.4453125 29.9921875 Z M119.5546875 91.9921875 C113.11947237 97.88000881 110.1050307 103.85565097 109.1796875 112.4921875 C109.95690458 119.74621355 112.28034169 126.7677173 117.5546875 131.9921875 C124.65687845 137.17549984 130.68490031 139.58350665 139.5546875 138.9921875 C147.88326838 137.46680639 154.15910215 132.82085591 159.0078125 125.92578125 C162.67082578 118.92220303 162.99886627 110.6442324 160.671875 103.1484375 C157.41581369 95.98941529 152.96696403 91.75925927 146.0546875 88.1796875 C136.65821221 84.99159767 127.58662747 85.75540462 119.5546875 91.9921875 Z M-56.4453125 331.9921875 C-61.10430305 338.61747245 -61.53335623 346.12773109 -60.4453125 353.9921875 C-58.29218335 360.92793095 -54.53424071 366.0461439 -48.4453125 369.9921875 C-41.47805657 373.60023075 -35.29985901 374.72619944 -27.7109375 372.77734375 C-20.8836809 370.4113462 -15.34988133 366.07407041 -11.4453125 359.9921875 C-8.21962602 353.12695287 -7.46565782 346.82336218 -9.6328125 339.4921875 C-12.89830648 330.66936202 -17.87920362 325.98078195 -26.4453125 321.9921875 C-38.68706899 318.95007436 -48.25917139 322.67635892 -56.4453125 331.9921875 Z " fill="#000000" transform="translate(205.4453125,58.0078125)"/>
</svg>
