<?xml version="1.0" standalone="no"?>
<!DOCTYPE svg PUBLIC "-//W3C//DTD SVG 20010904//EN"
 "http://www.w3.org/TR/2001/REC-SVG-20010904/DTD/svg10.dtd">
<svg version="1.0" xmlns="http://www.w3.org/2000/svg"
 width="512.000000pt" height="512.000000pt" viewBox="0 0 512.000000 512.000000"
 preserveAspectRatio="xMidYMid meet">

<g transform="translate(0.000000,512.000000) scale(0.100000,-0.100000)"
fill="#000000" stroke="none">
<path d="M1232 4543 l3 -308 103 -3 102 -3 0 106 0 105 95 0 94 0 3 -102 3
-103 100 0 100 0 3 308 2 307 -105 0 -105 0 0 -100 0 -100 -95 0 -95 0 0 100
0 100 -105 0 -105 0 2 -307z"/>
<path d="M1930 4750 l0 -100 90 0 90 0 2 -207 3 -208 100 0 100 0 3 208 2 207
90 0 90 0 0 100 0 100 -285 0 -285 0 0 -100z"/>
<path d="M2592 4543 l3 -308 98 -3 97 -3 0 151 c0 82 3 150 8 149 4 0 36 -45
71 -100 35 -54 66 -99 71 -99 4 0 36 45 71 100 l64 100 5 -147 5 -148 103 -3
102 -3 0 311 0 311 -111 -3 -111 -3 -64 -103 -63 -104 -36 59 c-20 32 -50 79
-66 106 l-29 47 -110 0 -110 0 2 -307z"/>
<path d="M3392 4543 l3 -308 248 -3 247 -2 0 105 0 105 -145 0 -145 0 0 205 0
205 -105 0 -105 0 2 -307z"/>
<path d="M937 3918 c2 -18 69 -764 148 -1657 80 -894 148 -1628 152 -1632 5
-3 304 -88 665 -188 l657 -182 658 182 c362 100 661 185 665 188 4 4 73 740
153 1636 79 897 146 1642 148 1658 l4 27 -1627 0 -1626 0 3 -32z m2643 -685
c0 -27 -7 -113 -15 -193 -8 -80 -15 -153 -15 -162 0 -17 -44 -18 -781 -18
l-782 0 7 -77 c3 -43 11 -135 17 -205 l12 -128 744 0 c593 0 743 -3 743 -13 0
-56 -112 -1242 -117 -1248 -9 -7 -812 -229 -831 -229 -16 0 -832 227 -838 233
-7 7 -63 630 -57 640 6 10 401 9 407 -2 3 -5 11 -74 18 -154 6 -81 15 -151 18
-157 4 -7 105 -38 226 -71 l218 -59 225 61 c124 33 227 61 228 63 3 3 43 451
43 485 l0 31 -700 0 c-552 0 -702 3 -705 13 -2 6 -28 284 -57 617 l-54 605
516 5 c283 3 743 6 1023 8 l507 2 0 -47z"/>
</g>
</svg>
