<?xml version="1.0" standalone="no"?>
<!DOCTYPE svg PUBLIC "-//W3C//DTD SVG 20010904//EN"
 "http://www.w3.org/TR/2001/REC-SVG-20010904/DTD/svg10.dtd">
<svg version="1.0" xmlns="http://www.w3.org/2000/svg"
 width="512.000000pt" height="512.000000pt" viewBox="0 0 512.000000 512.000000"
 preserveAspectRatio="xMidYMid meet">

<g transform="translate(0.000000,512.000000) scale(0.100000,-0.100000)"
fill="#000000" stroke="none">
<path d="M3955 2353 c-56 -6 -135 -24 -135 -31 0 -4 29 -8 64 -8 112 -3 208
-60 261 -156 28 -49 30 -61 29 -148 0 -74 -5 -107 -22 -148 -60 -144 -167
-258 -369 -392 -73 -49 -139 -90 -145 -93 -7 -2 -10 -8 -6 -12 10 -11 161 42
287 101 229 108 380 234 449 372 34 70 37 82 37 161 -1 110 -26 170 -99 239
-57 54 -109 84 -171 100 -49 12 -139 20 -180 15z"/>
<path d="M1814 2295 c-407 -53 -648 -144 -619 -236 15 -47 161 -109 360 -154
599 -134 1556 -103 2059 68 l69 23 -71 42 -70 42 -89 -20 c-336 -73 -822 -110
-1183 -90 -420 23 -718 79 -751 142 -26 49 96 112 306 157 55 12 116 26 135
30 l35 9 -40 0 c-22 0 -86 -6 -141 -13z"/>
<path d="M1725 1693 c-225 -50 -315 -94 -315 -153 0 -96 285 -189 705 -230
170 -17 550 -15 726 4 246 27 467 74 583 124 l40 18 -92 52 -92 52 -123 -25
c-366 -73 -872 -86 -1181 -29 -222 41 -302 99 -231 169 24 24 21 27 -20 18z"/>
<path d="M1827 1099 c-277 -79 -241 -213 79 -295 182 -46 302 -58 554 -58 256
0 391 14 556 58 108 29 206 67 206 80 0 6 -46 36 -102 69 -114 65 -94 63 -260
32 -118 -22 -536 -32 -666 -15 -214 27 -315 73 -284 130 13 25 7 25 -83 -1z"/>
<path d="M1265 935 c-302 -64 -527 -174 -551 -270 -45 -181 481 -334 1321
-385 797 -47 1694 75 1950 268 86 64 107 148 52 201 l-24 21 -24 -37 c-112
-175 -643 -294 -1419 -319 -406 -13 -911 41 -1225 131 -112 32 -233 91 -259
127 -17 24 -18 32 -7 67 20 70 117 135 284 192 67 23 76 28 47 28 -19 0 -84
-11 -145 -24z"/>
<path d="M4240 488 c-106 -89 -310 -185 -525 -247 -529 -152 -1366 -201 -2077
-121 -97 11 -197 24 -221 29 -25 4 -51 5 -57 1 -6 -4 38 -19 97 -33 602 -145
1469 -148 2106 -8 367 81 630 210 698 343 30 58 21 72 -21 36z"/>
</g>
</svg>
