<?xml version="1.0" standalone="no"?>
<!DOCTYPE svg PUBLIC "-//W3C//DTD SVG 20010904//EN"
 "http://www.w3.org/TR/2001/REC-SVG-20010904/DTD/svg10.dtd">
<svg version="1.0" xmlns="http://www.w3.org/2000/svg"
 width="512.000000pt" height="512.000000pt" viewBox="0 0 512.000000 512.000000"
 preserveAspectRatio="xMidYMid meet">

<g transform="translate(0.000000,512.000000) scale(0.100000,-0.100000)"
fill="#000000" stroke="none">
<path d="M2275 5070 c-213 -24 -401 -66 -490 -110 -114 -56 -219 -163 -271
-275 -52 -112 -54 -138 -54 -597 l0 -427 -453 -3 c-441 -4 -453 -4 -513 -26
-160 -59 -294 -189 -355 -344 -29 -73 -66 -256 -85 -420 -20 -175 -17 -208 18
-227 24 -14 28 -14 46 2 15 14 21 37 27 105 17 220 61 444 105 540 37 79 123
170 199 211 119 63 78 61 1152 61 1064 0 1009 -3 1009 54 0 46 5 46 -537 46
l-513 0 0 418 c0 460 2 482 61 593 41 76 132 162 211 199 71 33 187 60 363 86
170 26 574 26 735 1 192 -30 322 -65 387 -103 168 -101 241 -244 242 -470 1
-99 3 -113 22 -130 19 -17 23 -17 47 -3 27 14 27 16 30 131 5 211 -40 332
-172 463 -122 120 -232 165 -526 210 -123 20 -560 29 -685 15z"/>
<path d="M2058 4486 c-79 -28 -128 -79 -148 -155 -26 -97 19 -195 109 -245
137 -74 306 16 319 170 8 101 -52 195 -147 229 -53 18 -84 18 -133 1z m125
-108 c26 -13 57 -68 57 -102 0 -39 -34 -91 -70 -106 -119 -49 -219 99 -129
190 40 39 89 45 142 18z"/>
<path d="M3581 4134 c-29 -21 -27 -60 4 -80 23 -15 27 -15 50 0 15 10 25 26
25 40 0 40 -46 63 -79 40z"/>
<path d="M3570 3921 c-6 -13 -10 -169 -10 -439 0 -237 -4 -443 -10 -473 -25
-135 -126 -272 -248 -337 -112 -60 -137 -62 -763 -62 -531 0 -571 -1 -643 -20
-164 -42 -301 -153 -377 -305 -55 -112 -60 -147 -66 -447 l-6 -278 -402 0
c-232 0 -425 4 -456 10 -90 17 -174 63 -245 134 -101 101 -139 204 -179 486
-17 122 -34 154 -75 143 -39 -10 -43 -27 -31 -126 40 -314 90 -449 211 -572
64 -67 124 -105 215 -142 l70 -28 452 -3 453 -3 0 -427 c0 -468 2 -489 60
-607 54 -111 157 -213 268 -266 129 -62 400 -108 678 -116 292 -8 619 28 798
88 184 62 335 229 381 420 12 52 15 144 15 487 l0 422 133 0 c90 0 137 4 145
12 19 19 15 66 -7 78 -13 6 -252 10 -705 10 -744 0 -716 2 -716 -54 0 -46 -5
-46 537 -46 l513 0 0 -409 c0 -231 -4 -432 -10 -462 -24 -127 -133 -275 -246
-332 -144 -73 -507 -124 -819 -114 -277 8 -528 50 -652 109 -81 38 -171 122
-211 196 -63 118 -62 103 -62 907 0 677 1 735 18 796 48 173 184 301 364 344
52 12 164 15 633 15 628 0 635 1 762 62 91 44 215 167 260 258 58 115 63 155
63 457 l0 273 418 0 c460 0 482 -2 594 -62 69 -37 158 -128 194 -200 29 -57
64 -204 91 -378 25 -163 25 -569 0 -730 -44 -287 -90 -405 -193 -499 -104 -95
-207 -131 -375 -131 -90 0 -108 -3 -122 -18 -21 -23 -22 -46 -1 -66 12 -13 39
-16 127 -16 206 0 324 46 452 175 122 121 162 223 212 540 28 170 24 571 -6
765 -54 353 -79 419 -206 545 -56 57 -100 90 -145 112 -126 61 -141 63 -612
63 l-428 0 0 128 c0 86 -4 132 -12 140 -19 19 -66 15 -78 -7z"/>
<path d="M69 2527 c-29 -15 -37 -58 -14 -81 21 -21 38 -20 65 2 45 36 1 104
-51 79z"/>
<path d="M4065 1540 c-24 -27 -13 -68 22 -76 34 -9 57 6 61 42 6 49 -49 72
-83 34z"/>
<path d="M2915 1046 c-82 -36 -134 -113 -135 -199 0 -133 120 -240 248 -221
57 9 131 59 158 108 83 148 -24 327 -193 326 -26 -1 -61 -7 -78 -14z m167
-125 c63 -70 21 -182 -72 -192 -90 -10 -154 78 -120 162 31 75 137 91 192 30z"/>
</g>
</svg>
