<?xml version="1.0" encoding="UTF-8"?>
<svg version="1.1" xmlns="http://www.w3.org/2000/svg" width="512" height="512">
<path d="M0 0 C2.5796738 2.28276067 5.14087977 4.58239247 7.68359375 6.90625 C9.66848405 8.70034983 11.69420011 10.41401581 13.75 12.125 C57.77500979 50.74653776 83.64517969 109.83472273 91 167 C91.09571289 167.69359619 91.19142578 168.38719238 91.29003906 169.10180664 C99.41242386 236.40260613 78.29765403 304.30397606 36.9375 357.3125 C33.0166466 362.10737697 28.81871985 366.64259433 24.6015625 371.17578125 C22.4474164 373.51429121 20.36708563 375.88733842 18.3125 378.3125 C15.54842951 381.48534148 12.61126069 384.25837459 9.3984375 386.97265625 C7.56681173 388.52088716 5.76707051 390.08900928 3.9765625 391.68359375 C-28.61539068 420.50832585 -68.49478298 439.37363244 -110.8125 448.75 C-111.70622314 448.94875732 -112.59994629 449.14751465 -113.52075195 449.35229492 C-116.34016056 449.95010282 -119.16368823 450.48835801 -122 451 C-123.02391846 451.18763916 -124.04783691 451.37527832 -125.1027832 451.56860352 C-137.84595833 453.58849863 -150.69086618 453.44084721 -163.5625 453.4375 C-164.78721008 453.43823517 -166.01192017 453.43897034 -167.27374268 453.43972778 C-186.03710083 453.41012 -203.72349094 452.54134925 -222 448 C-223.06589355 447.74831055 -224.13178711 447.49662109 -225.22998047 447.23730469 C-262.28871062 438.34320945 -296.49808585 421.03589294 -326 397 C-326.54543457 396.5575293 -327.09086914 396.11505859 -327.65283203 395.65917969 C-341.37409634 384.44023756 -354.1814377 372.06207814 -365 358 C-365.77214844 357.04480469 -366.54429687 356.08960938 -367.33984375 355.10546875 C-391.74954746 324.44873186 -407.26564768 288.32242796 -415.75 250.25 C-415.94883789 249.36441406 -416.14767578 248.47882813 -416.35253906 247.56640625 C-419.85642631 231.09873721 -420.40526172 214.96838534 -420.375 198.1875 C-420.37445618 197.05582397 -420.37391235 195.92414795 -420.37335205 194.75817871 C-420.33598364 177.85749505 -419.77664671 161.5424548 -416 145 C-415.78037598 144.01338379 -415.56075195 143.02676758 -415.33447266 142.01025391 C-410.74525956 121.90930568 -403.93000032 102.57473702 -395 84 C-394.50209961 82.96311035 -394.50209961 82.96311035 -393.99414062 81.90527344 C-382.61401066 58.58371117 -366.97213459 37.62408627 -349 19 C-348.43345703 18.41154297 -347.86691406 17.82308594 -347.28320312 17.21679688 C-279.87307377 -52.42792241 -176.62899579 -75.78147128 0 0 Z M-188.375 52.3125 C-199.84896729 69.52345093 -211 94.96026243 -211 116 C-211.85078125 115.69707031 -212.7015625 115.39414063 -213.578125 115.08203125 C-236.49600933 107.15829465 -266.22633157 97.5614988 -290 107 C-297.10818407 110.58669838 -302.42313468 115.26940403 -305 123 C-306.71649362 141.19483234 -298.41307535 154.77552983 -287.2265625 168.40234375 C-279.86903596 176.98612471 -272.05425555 185.06944462 -264 193 C-262.33216579 194.66549831 -260.665195 196.33186296 -259 198 C-259.72703125 198.65484375 -260.4540625 199.3096875 -261.203125 199.984375 C-264.49386545 202.96268589 -267.7523225 205.97484333 -271 209 C-271.50708496 209.47018555 -272.01416992 209.94037109 -272.53662109 210.42480469 C-286.3556956 223.35188332 -303.36914399 241.653513 -305.3359375 261.3671875 C-305.42806744 269.64045631 -305.0231439 275.32090873 -299.5625 281.671875 C-291.33575082 289.6613141 -279.42433604 291.26590193 -268.42993164 291.24658203 C-248.73294652 290.90556936 -229.50779062 285.34649272 -211 279 C-210.908396 279.70503662 -210.81679199 280.41007324 -210.72241211 281.13647461 C-207.39846395 305.54401804 -198.4640275 337.32469274 -178 353 C-172.12799725 356.35673678 -166.70971817 357.8520277 -160 357 C-149.44530072 353.97356293 -142.16293761 346.30613413 -136.68359375 337.09375 C-128.84473228 322.68916001 -123.44504627 307.62314466 -119.625 291.6875 C-119.37327026 290.63876709 -119.37327026 290.63876709 -119.11645508 289.56884766 C-118.29897182 285.96450971 -117.93283882 282.68398811 -118 279 C-117.40276123 279.19110352 -116.80552246 279.38220703 -116.19018555 279.57910156 C-105.75788638 282.8946157 -95.34927702 286.13791385 -84.625 288.375 C-83.88467529 288.53000977 -83.14435059 288.68501953 -82.3815918 288.84472656 C-66.96541247 291.91154552 -48.8140788 293.86186958 -34.625 285.75 C-28.9401645 281.80614537 -24.38505067 276.92525333 -23 270 C-21.14552223 255.77267833 -29.02873448 242.23011133 -37.31103516 231.26416016 C-40.3930426 227.37638438 -43.67473375 223.67962601 -47 220 C-47.95477093 218.92348194 -48.9091981 217.84665891 -49.86328125 216.76953125 C-54.42328834 211.66784204 -59.08576787 206.87052199 -64.33984375 202.46875 C-66.52870798 200.53224894 -68.28456144 198.35872802 -70 196 C-69.4438501 195.76692139 -68.8877002 195.53384277 -68.31469727 195.29370117 C-65.3990568 193.66412847 -63.34791843 191.64293155 -60.96484375 189.30078125 C-60.48934586 188.83370758 -60.01384796 188.36663391 -59.52394104 187.88540649 C-57.98746533 186.36859083 -56.46108334 184.84226052 -54.9375 183.3125 C-54.15874512 182.53243088 -54.15874512 182.53243088 -53.36425781 181.73660278 C-39.33943916 167.63325862 -23.81107568 150.48056201 -22.625 129.5625 C-22.86962479 122.06925649 -25.82209526 116.75590279 -31.1875 111.625 C-35.4841874 108.06448309 -39.58236123 106.19623046 -45 105 C-45.73347656 104.81824219 -46.46695312 104.63648438 -47.22265625 104.44921875 C-67.34119429 101.19516548 -87.41004456 106.84146166 -106.56738281 112.32080078 C-110.0281852 113.28707459 -113.50905495 114.14964159 -117 115 C-117.27094482 113.85337891 -117.27094482 113.85337891 -117.54736328 112.68359375 C-126.54090253 72.27810519 -126.54090253 72.27810519 -152 41 C-165.76108583 33.32764858 -179.63318451 40.56507155 -188.375 52.3125 Z " fill="#55B7DD" transform="translate(420,59)"/>
<path d="M0 0 C2.36499023 1.07226562 2.36499023 1.07226562 4.80859375 2.40625 C5.71456299 2.89843018 6.62053223 3.39061035 7.55395508 3.89770508 C8.5055249 4.4264624 9.45709473 4.95521973 10.4375 5.5 C11.41291748 6.04100342 12.38833496 6.58200684 13.39331055 7.1394043 C16.26948158 8.74708824 19.13597984 10.37078839 22 12 C22.7847168 12.44037598 23.56943359 12.88075195 24.37792969 13.33447266 C26.37419739 14.46617563 28.3462392 15.62962792 30.3125 16.8125 C31.40175781 17.45832031 32.49101562 18.10414063 33.61328125 18.76953125 C37.43810127 22.34395388 36.95345718 26.66448449 37.12939453 31.71289062 C37.13108643 33.66485352 37.13108643 33.66485352 37.1328125 35.65625 C37.13376923 36.36221313 37.13472595 37.06817627 37.13571167 37.79553223 C37.13638768 39.27791433 37.13457412 40.76029949 37.13037109 42.24267578 C37.12501455 44.49388363 37.13033584 46.74489201 37.13671875 48.99609375 C37.13605787 50.44531293 37.13477649 51.894532 37.1328125 53.34375 C37.13168457 54.64505859 37.13055664 55.94636719 37.12939453 57.28710938 C36.78690757 67.11454662 36.78690757 67.11454662 34.55151367 69.62988281 C33.61915894 70.1611377 33.61915894 70.1611377 32.66796875 70.703125 C31.9610791 71.12110352 31.25418945 71.53908203 30.52587891 71.96972656 C29.75421387 72.3922168 28.98254883 72.81470703 28.1875 73.25 C27.39520996 73.70600586 26.60291992 74.16201172 25.78662109 74.63183594 C24.09083626 75.60170702 22.38840927 76.56003909 20.68017578 77.5078125 C17.9335025 79.03702247 15.21444605 80.60857392 12.49609375 82.1875 C10.70692736 83.21043189 8.91659076 84.23132018 7.125 85.25 C6.27574951 85.74016602 5.42649902 86.23033203 4.55151367 86.73535156 C3.75334229 87.1784668 2.9551709 87.62158203 2.1328125 88.078125 C1.43043457 88.47418945 0.72805664 88.87025391 0.00439453 89.27832031 C-3.10277635 90.39705321 -5.00014346 89.4479827 -7.91259766 88.14306641 C-10.15362756 86.97689983 -12.39219469 85.80685949 -14.625 84.625 C-15.36234375 84.24472656 -16.0996875 83.86445313 -16.859375 83.47265625 C-18.52670755 82.594968 -20.1742679 81.67919872 -21.8059082 80.73681641 C-24.3854263 79.33418003 -26.89944505 78.17693128 -29.59057617 77.02490234 C-41.50956639 71.48561832 -41.50956639 71.48561832 -44.04260254 65.56170654 C-45.46007974 59.59903159 -45.43584697 53.67907718 -45.18188477 47.58398438 C-45.06210002 44.36424888 -45.11973418 41.18132286 -45.19726562 37.9609375 C-45.18048777 23.73560073 -45.18048777 23.73560073 -41.55804443 19.19094849 C-38.03841726 16.19289126 -34.09608502 14.37011461 -29.80856323 12.71618652 C-27.48824604 11.79734671 -25.41141435 10.58655677 -23.28125 9.29296875 C-22.02212993 8.58882229 -20.76178873 7.88685312 -19.5 7.1875 C-18.21862216 6.47288543 -16.9373711 5.75804349 -15.65625 5.04296875 C-15.04910156 4.70958496 -14.44195312 4.37620117 -13.81640625 4.03271484 C-12.57531487 3.32709434 -11.35406334 2.58570606 -10.15234375 1.81494141 C-6.21562796 -0.66463687 -4.43225377 -1.29147065 0 0 Z M-19.80078125 33.953125 C-22.88705572 39.22090292 -23.6627192 44.78788452 -22.125 50.6875 C-19.74279961 56.68554027 -14.93900782 60.3512883 -9.4375 63.4375 C-3.38648711 64.83388759 1.32695232 64.04310735 6.84765625 61.41015625 C11.37580758 58.44343642 14.30592734 54.08221797 16 49 C16.77428275 42.56456799 15.96894025 37.2332841 12 32 C6.84680283 27.23044125 2.40263637 24.594103 -4.81640625 24.7265625 C-11.05376437 25.50762702 -15.99717661 29.0761744 -19.80078125 33.953125 Z " fill="#55B7DD" transform="translate(259,212)"/>
<path d="M0 0 C3.1543395 1.29579331 6.19606422 2.79744623 9.25 4.3125 C15.74857359 7.46980526 22.23085802 10.46026286 29 13 C28.55805965 21.0361799 27.10509509 28.4027539 24.875 36.125 C24.56369141 37.21377441 24.25238281 38.30254883 23.93164062 39.42431641 C13.98433504 73.34422815 13.98433504 73.34422815 0.91015625 82.03515625 C-2.0011168 83.50567658 -3.81504432 83.69238167 -7 83 C-20.55531586 75.93993966 -26.42479817 58.92247 -30.90649414 45.16845703 C-32.85415587 38.86747706 -34.44012624 32.48371767 -35.9375 26.0625 C-36.16139404 25.10843262 -36.38528809 24.15436523 -36.6159668 23.17138672 C-36.81359619 22.28080566 -37.01122559 21.39022461 -37.21484375 20.47265625 C-37.39136475 19.68125244 -37.56788574 18.88984863 -37.74975586 18.07446289 C-38 16 -38 16 -37 13 C-34.25610352 11.48193359 -34.25610352 11.48193359 -30.62890625 9.8984375 C-29.99137924 9.61650543 -29.35385223 9.33457336 -28.69700623 9.0440979 C-26.65642141 8.1443304 -24.60974626 7.25949106 -22.5625 6.375 C-21.18641584 5.77182049 -19.81075889 5.16766533 -18.43554688 4.5625 C-15.91736365 3.45524214 -13.39653983 2.35504366 -10.87329102 1.25927734 C-6.34798588 -0.72402828 -4.9574859 -1.19450735 0 0 Z " fill="#55B7DD" transform="translate(260,319)"/>
<path d="M0 0 C2.66267228 0.83014816 4.24293793 1.76655615 6.41455078 3.49316406 C7.1203125 4.04488281 7.82607422 4.59660156 8.55322266 5.16503906 C9.27703125 5.74511719 10.00083984 6.32519531 10.74658203 6.92285156 C12.1758358 8.05265509 13.60684343 9.18024326 15.03955078 10.30566406 C15.76207031 10.88993164 16.48458984 11.47419922 17.22900391 12.07617188 C19.54670851 13.8726811 19.54670851 13.8726811 22.26416016 15.26171875 C26.52729611 17.66337741 29.05958593 19.28332388 30.63110352 24.04833984 C31.21747538 27.96888796 31.51174599 31.84359152 31.68408203 35.79785156 C31.77879117 37.15232205 31.87771965 38.50650439 31.98095703 39.86035156 C32.39683152 45.84894426 32.5964103 51.79470101 32.55908203 57.79785156 C13.28148358 66.65869025 -15.06709635 74.16851755 -36.19091797 68.54785156 C-42.57987146 66.18157249 -42.57987146 66.18157249 -44.44091797 62.79785156 C-46.65806435 53.45172681 -42.19850154 45.48802095 -37.59960938 37.65478516 C-34.66789434 32.95638132 -31.16622142 28.87682306 -27.44091797 24.79785156 C-26.51321784 23.75152311 -25.58616208 22.70462307 -24.65966797 21.65722656 C-19.48768324 15.87262278 -14.09340275 10.3042906 -8.50341797 4.92285156 C-7.97200195 4.39248291 -7.44058594 3.86211426 -6.89306641 3.31567383 C-3.08849666 -0.25577868 -3.08849666 -0.25577868 0 0 Z " fill="#56BDDD" transform="translate(173.44091796875,266.2021484375)"/>
<path d="M0 0 C4.61438663 2.41571161 8.17974383 6.42255109 11.91015625 10 C12.4609082 10.52352051 13.01166016 11.04704102 13.57910156 11.58642578 C26.19114643 23.6373864 42.73674226 39.44966651 44.22265625 57.875 C44.15275741 60.80537448 43.86243369 62.09761433 42.53515625 64.8125 C34.62531453 71.40403477 23.67211439 70.75495978 13.91015625 70 C-2.39296759 68.29756286 -18.89477627 64.11217321 -34.08984375 58 C-33.90808594 56.14761719 -33.90808594 56.14761719 -33.72265625 54.2578125 C-33.64378174 53.44747559 -33.56490723 52.63713867 -33.48364258 51.80224609 C-33.30264797 49.99953323 -33.11219377 48.19774791 -32.9128418 46.39697266 C-32.42529848 41.91847739 -32.04177756 37.522625 -32.0390625 33.015625 C-31.84944812 22.06794923 -31.84944812 22.06794923 -28.74121094 18.41503906 C-25.20615274 15.4167937 -21.2140794 13.31614963 -17.12792969 11.16943359 C-13.17998657 8.9041428 -9.76637214 5.89275433 -6.3034668 2.95703125 C-2.64805016 0 -2.64805016 0 0 0 Z " fill="#54B1DD" transform="translate(339.08984375,266)"/>
<path d="M0 0 C17.83907771 12.0310059 23.01262506 40.61813389 27.6328125 60.3203125 C28.11482981 63.27161148 28.15737977 66.06161203 28.078125 69.046875 C27.49957764 69.29332764 26.92103027 69.53978027 26.32495117 69.79370117 C24.60567149 70.52667435 22.88670354 71.26037895 21.16796875 71.99462891 C19.22976891 72.82253762 17.29096375 73.64903065 15.3515625 74.47412109 C9.55831901 76.94840049 3.84738279 79.50455353 -1.765625 82.3671875 C-7.46785273 84.16462885 -13.09490408 80.19798505 -18.109375 77.734375 C-24.08884473 74.83188588 -30.00628729 72.05602096 -36.3046875 69.8984375 C-37.921875 69.046875 -37.921875 69.046875 -38.921875 66.046875 C-38.56396484 63.64941406 -38.56396484 63.64941406 -37.8828125 60.8125 C-37.6348291 59.77085693 -37.3868457 58.72921387 -37.13134766 57.65600586 C-36.85597168 56.54749268 -36.5805957 55.43897949 -36.296875 54.296875 C-35.87801025 52.59640015 -35.87801025 52.59640015 -35.45068359 50.86157227 C-30.91375379 32.7539228 -25.55738538 12.77717101 -10.921875 0.046875 C-6.92785774 -1.28446409 -3.92575261 -1.94691796 0 0 Z " fill="#55B7DD" transform="translate(260.921875,111.953125)"/>
<path d="M0 0 C3.26769714 2.78949756 3.89290962 4.32176093 4.5625 8.5625 C3.54068568 25.12827768 -11.02312268 39.73772387 -22 51 C-22.51949219 51.53463867 -23.03898437 52.06927734 -23.57421875 52.62011719 C-25.16791949 54.25337104 -26.76888645 55.87895511 -28.375 57.5 C-29.10662354 58.23887451 -29.10662354 58.23887451 -29.85302734 58.99267578 C-35.68686731 64.79843952 -35.68686731 64.79843952 -39 67 C-42.09955686 66.60221896 -44.05781631 65.44410015 -46.50390625 63.55859375 C-47.1572998 63.06206299 -47.81069336 62.56553223 -48.48388672 62.05395508 C-49.89112973 60.95959802 -51.29768566 59.86435697 -52.70361328 58.76831055 C-55.88285366 56.30578796 -58.93456516 54.03775374 -62.42578125 52.0234375 C-67.01167269 49.36301306 -69.51907646 47.64450633 -71.04296875 42.43359375 C-71.5954248 38.79557481 -71.7645906 35.16125859 -71.88623047 31.48681641 C-72.09367952 26.9523185 -72.64067848 22.4492312 -73.125 17.9375 C-73.29632888 16.21765169 -73.46578105 14.49761474 -73.6328125 12.77734375 C-73.75398438 11.53082031 -73.87515625 10.28429687 -74 9 C-65.2213216 5.45083843 -56.32758647 2.95797491 -47.125 0.75 C-46.05580322 0.49202637 -44.98660645 0.23405273 -43.88500977 -0.03173828 C-31.19739061 -3.00925278 -11.97853852 -7.08992256 0 0 Z " fill="#54B1DD" transform="translate(379,180)"/>
<path d="M0 0 C0.495 0.495 0.495 0.495 1 1 C0.94671963 3.7336929 0.75470029 6.44045062 0.50976562 9.16333008 C0.14800328 13.29265689 -0.00121626 17.32230031 0.08203125 21.46875 C0.06178301 35.35428095 0.06178301 35.35428095 -3.56542969 40.00878906 C-7.55279094 43.62833493 -12.09773793 46.19628398 -16.81738281 48.74169922 C-20.07310435 50.61865546 -22.87366526 52.97123916 -25.75 55.375 C-28.484375 57.6484375 -28.484375 57.6484375 -31 59 C-34.74023721 57.91013959 -37.15949389 56.24523301 -39.9609375 53.5859375 C-40.68023437 52.90660156 -41.39953125 52.22726563 -42.140625 51.52734375 C-42.87796875 50.81707031 -43.6153125 50.10679687 -44.375 49.375 C-45.10460937 48.68792969 -45.83421875 48.00085938 -46.5859375 47.29296875 C-58.80592781 35.66215655 -75.97133236 18.80306316 -76.6875 0.875 C-76.44244618 -2.21993896 -76.12180258 -3.78816942 -74.5625 -6.5 C-53.56768716 -18.78964654 -20.93605955 -7.73078237 0 0 Z " fill="#56BDDD" transform="translate(205,188)"/>
<path d="M0 0 C0 8.25 0 16.5 0 25 C-5.625 22.75 -5.625 22.75 -8.33203125 20.6171875 C-8.90244141 20.17246094 -9.47285156 19.72773438 -10.06054688 19.26953125 C-10.63869141 18.80933594 -11.21683594 18.34914063 -11.8125 17.875 C-12.40998047 17.40707031 -13.00746094 16.93914062 -13.62304688 16.45703125 C-15.08616792 15.30994435 -16.54366297 14.15568766 -18 13 C-14.64992917 9.51568225 -11.2259495 6.52248184 -7.3125 3.6875 C-6.35988281 2.99011719 -5.40726563 2.29273438 -4.42578125 1.57421875 C-2 0 -2 0 0 0 Z " fill="#55BBDD" transform="translate(202,244)"/>
<path d="M0 0 C2.77481301 1.09492622 5.54457463 2.20040711 8.3125 3.3125 C9.09818359 3.62123047 9.88386719 3.92996094 10.69335938 4.24804688 C11.8293457 4.70727539 11.8293457 4.70727539 12.98828125 5.17578125 C13.68477783 5.45333252 14.38127441 5.73088379 15.09887695 6.0168457 C17.15212883 7.0786725 18.45997105 8.29143163 20 10 C16.54565686 12.00695291 13.0858937 14.00436779 9.625 16 C8.64015625 16.57234375 7.6553125 17.1446875 6.640625 17.734375 C5.69960937 18.27578125 4.75859375 18.8171875 3.7890625 19.375 C2.48509521 20.12910156 2.48509521 20.12910156 1.15478516 20.8984375 C-1 22 -1 22 -3 22 C-2.69393651 18.70770134 -2.37905797 15.41630486 -2.0625 12.125 C-1.97548828 11.18785156 -1.88847656 10.25070313 -1.79882812 9.28515625 C-1.71181641 8.38925781 -1.62480469 7.49335938 -1.53515625 6.5703125 C-1.456604 5.74289551 -1.37805176 4.91547852 -1.29711914 4.06298828 C-1 2 -1 2 0 0 Z " fill="#54BADE" transform="translate(220,194)"/>
<path d="M0 0 C-0.14203337 2.37528151 -0.28851612 4.75015251 -0.4375 7.125 C-0.47681641 7.79015625 -0.51613281 8.4553125 -0.55664062 9.140625 C-0.812152 13.15018817 -1.26782413 17.04994196 -2 21 C-7.00600922 20.45318976 -10.97181067 18.75859667 -15.375 16.4375 C-16.01566406 16.10814453 -16.65632813 15.77878906 -17.31640625 15.43945312 C-18.88138632 14.63360518 -20.44124021 13.81781507 -22 13 C-19.86979193 10.71464143 -17.7462071 9.10448528 -15.05859375 7.51953125 C-14.31029297 7.07802734 -13.56199219 6.63652344 -12.79101562 6.18164062 C-12.01435547 5.72982422 -11.23769531 5.27800781 -10.4375 4.8125 C-9.65697266 4.34908203 -8.87644531 3.88566406 -8.07226562 3.40820312 C-2.25472892 0 -2.25472892 0 0 0 Z " fill="#54B5DD" transform="translate(294,297)"/>
<path d="M0 0 C0.33801152 2.54112232 0.67053379 5.08276746 1 7.625 C1.09539062 8.33785156 1.19078125 9.05070313 1.2890625 9.78515625 C1.81606101 13.88821609 2.10466984 17.85245742 2 22 C-2.94077934 20.25736039 -7.31281263 17.64021891 -11.8125 15 C-12.60076172 14.54882812 -13.38902344 14.09765625 -14.20117188 13.6328125 C-14.94560547 13.19710937 -15.69003906 12.76140625 -16.45703125 12.3125 C-17.13741455 11.91675781 -17.81779785 11.52101562 -18.51879883 11.11328125 C-19.00759521 10.74589844 -19.4963916 10.37851563 -20 10 C-20 9.34 -20 8.68 -20 8 C-16.85537996 6.66379191 -13.70910887 5.33151712 -10.5625 4 C-9.66466797 3.6184375 -8.76683594 3.236875 -7.84179688 2.84375 C-6.98779297 2.4828125 -6.13378906 2.121875 -5.25390625 1.75 C-4.46314697 1.41484375 -3.6723877 1.0796875 -2.85766602 0.734375 C-1 0 -1 0 0 0 Z " fill="#55B5DD" transform="translate(292,194)"/>
<path d="M0 0 C5.51568187 1.53311285 10.02034852 4.18752444 14.875 7.125 C16.050625 7.82689453 16.050625 7.82689453 17.25 8.54296875 C19.16982472 9.69018108 21.08630561 10.8426007 23 12 C20.10320449 15.12637964 16.88399689 16.57580047 13 18.1875 C12.3709375 18.46013672 11.741875 18.73277344 11.09375 19.01367188 C8.2279328 20.22496537 6.14296477 21 3 21 C1.44005901 14.01812817 0.51537952 7.13393752 0 0 Z " fill="#56B9DD" transform="translate(217,297)"/>
<path d="M0 0 C3.84449092 1.92224546 7.24912842 4.16284856 10.75 6.625 C11.35199219 7.04523438 11.95398438 7.46546875 12.57421875 7.8984375 C14.05113043 8.92993137 15.52579194 9.96464579 17 11 C15.45264442 15.35702755 12.06870193 17.58702068 8.5 20.25 C7.90574219 20.70890625 7.31148438 21.1678125 6.69921875 21.640625 C2.27004278 25 2.27004278 25 0 25 C0 16.75 0 8.5 0 0 Z " fill="#54B4DC" transform="translate(310,244)"/>
<path d="M0 0 C3.625 0.375 3.625 0.375 7 1 C8.32561852 7.38707103 8.32561852 7.38707103 6.9375 10 C3.99948754 11.51639353 2.09843192 10.92293717 -1 10 C-3 7 -3 7 -2.75 4.4375 C-2 2 -2 2 0 0 Z " fill="#55B7DC" transform="translate(253,251)"/>
</svg>
